<svg width="605" height="605" viewBox="0 0 605 605" fill="none" xmlns="http://www.w3.org/2000/svg">
<circle cx="302.5" cy="302.5" r="302.5" fill="#CBA6F7"/>
<path d="M344.467 98.38L341.587 95.19C341.51 95.1106 341.407 95.061 341.297 95.05L332.597 94.05C332.524 94.0354 332.449 94.0354 332.377 94.05L327.557 96.05C327.497 96.0713 327.442 96.1055 327.397 96.15L325.007 98.61C324.944 98.6723 324.9 98.7519 324.882 98.8387C324.864 98.9256 324.872 99.0158 324.906 99.0981C324.939 99.1803 324.995 99.251 325.069 99.3011C325.142 99.3513 325.228 99.3787 325.317 99.38L326.317 99.43C326.371 99.4294 326.424 99.4397 326.474 99.4603C326.524 99.481 326.569 99.5115 326.607 99.55L327.737 100.61C327.787 100.654 327.846 100.687 327.91 100.706C327.973 100.725 328.041 100.73 328.107 100.72L335.517 99.72C335.607 99.7105 335.692 99.674 335.762 99.6152C335.831 99.5564 335.88 99.478 335.904 99.3904C335.928 99.3027 335.925 99.21 335.895 99.1242C335.865 99.0385 335.81 98.9638 335.737 98.91C335.664 98.8526 335.61 98.7747 335.582 98.6863C335.555 98.5978 335.554 98.5031 335.581 98.4145C335.608 98.3259 335.662 98.2475 335.734 98.1896C335.806 98.1317 335.894 98.097 335.987 98.09L340.217 97.82H340.397L343.967 99.11C344.062 99.1417 344.164 99.1417 344.259 99.1099C344.354 99.0781 344.436 99.0162 344.492 98.9337C344.549 98.8512 344.577 98.7525 344.572 98.6526C344.568 98.5526 344.531 98.4569 344.467 98.38Z" fill="#11111B"/>
<path d="M207.997 136.54L204.397 137.05C204.284 137.069 204.18 137.121 204.097 137.2L200.937 140.11C200.874 140.164 200.823 140.23 200.788 140.306C200.753 140.381 200.735 140.463 200.735 140.545C200.735 140.628 200.753 140.71 200.788 140.785C200.823 140.86 200.874 140.927 200.937 140.98L202.007 141.83C202.068 141.879 202.139 141.915 202.215 141.935C202.29 141.956 202.369 141.961 202.447 141.95L205.207 141.53C205.278 141.522 205.346 141.498 205.407 141.46L207.657 140.12C207.721 140.084 207.777 140.035 207.821 139.977C207.866 139.918 207.899 139.851 207.917 139.78L208.587 137.25C208.609 137.163 208.611 137.072 208.591 136.984C208.571 136.896 208.531 136.814 208.473 136.745C208.416 136.675 208.342 136.621 208.26 136.585C208.177 136.55 208.087 136.534 207.997 136.54Z" fill="#11111B"/>
<path d="M201.737 133.71L201.677 133.59C201.622 133.483 201.534 133.395 201.427 133.339C201.319 133.284 201.197 133.263 201.077 133.28L197.827 133.82C197.735 133.839 197.648 133.878 197.573 133.935C197.499 133.992 197.438 134.066 197.397 134.15L196.257 136.66C196.227 136.729 196.183 136.79 196.129 136.841C196.074 136.892 196.011 136.932 195.941 136.958C195.871 136.984 195.796 136.996 195.722 136.993C195.647 136.99 195.574 136.972 195.507 136.94L189.307 134.17C189.202 134.123 189.086 134.109 188.974 134.129C188.861 134.149 188.757 134.202 188.675 134.282C188.593 134.362 188.537 134.464 188.514 134.576C188.491 134.688 188.503 134.805 188.547 134.91L188.607 135.06C188.646 135.149 188.704 135.227 188.777 135.29L195.987 141C196.083 141.064 196.196 141.098 196.312 141.098C196.427 141.098 196.54 141.064 196.637 141L198.397 140C198.477 139.952 198.544 139.884 198.592 139.804C198.641 139.724 198.67 139.634 198.677 139.54L198.827 136.63C198.833 136.543 198.859 136.458 198.902 136.382C198.945 136.306 199.005 136.241 199.077 136.19L201.557 134.46C201.677 134.382 201.763 134.261 201.796 134.121C201.83 133.982 201.809 133.835 201.737 133.71Z" fill="#11111B"/>
<path d="M189.007 119.45L200.007 119.62C200.083 119.622 200.158 119.608 200.228 119.58C200.299 119.552 200.363 119.51 200.417 119.457C200.471 119.404 200.513 119.341 200.543 119.271C200.572 119.201 200.587 119.126 200.587 119.05V117.92C200.587 117.822 200.611 117.726 200.659 117.641C200.706 117.555 200.775 117.483 200.859 117.432C200.942 117.381 201.037 117.352 201.135 117.348C201.233 117.344 201.33 117.366 201.417 117.41L203.877 118.68C204.009 118.729 204.155 118.729 204.287 118.68L204.797 118.54C204.901 118.516 204.997 118.464 205.073 118.388C205.149 118.312 205.202 118.217 205.226 118.112C205.25 118.008 205.244 117.899 205.209 117.798C205.173 117.697 205.111 117.607 205.027 117.54L201.477 114.22C201.389 114.137 201.277 114.084 201.157 114.07L196.557 113.49C196.419 113.475 196.292 113.41 196.199 113.307C196.107 113.203 196.056 113.069 196.057 112.93C196.06 112.784 196.005 112.641 195.904 112.535C195.803 112.428 195.664 112.366 195.517 112.36L191.517 112.12C191.413 112.111 191.309 112.132 191.217 112.18L185.277 115.28C185.202 115.321 185.137 115.378 185.086 115.447C185.036 115.517 185.002 115.596 184.987 115.68L184.537 117.87C184.52 117.957 184.523 118.047 184.546 118.133C184.569 118.218 184.612 118.297 184.672 118.363C184.731 118.429 184.805 118.481 184.887 118.513C184.97 118.546 185.059 118.558 185.147 118.55L186.377 118.44C186.49 118.433 186.598 118.391 186.687 118.32L187.557 117.62C187.64 117.556 187.739 117.515 187.843 117.504C187.948 117.492 188.054 117.509 188.149 117.554C188.244 117.598 188.325 117.668 188.383 117.756C188.441 117.843 188.473 117.945 188.477 118.05V118.83C188.469 118.906 188.476 118.983 188.499 119.056C188.521 119.129 188.558 119.197 188.608 119.255C188.658 119.313 188.719 119.36 188.787 119.394C188.856 119.427 188.931 119.447 189.007 119.45Z" fill="#11111B"/>
<path d="M274.087 90.25L273.947 90.17L268.087 87.89C268.024 87.8804 267.96 87.8804 267.897 87.89L263.997 88.08C263.879 88.0826 263.767 88.1312 263.685 88.2153C263.603 88.2994 263.557 88.4124 263.557 88.53V90.12C263.554 90.2225 263.586 90.3231 263.648 90.4049C263.709 90.4867 263.797 90.545 263.897 90.57L266.977 91.43H267.057L268.377 92.07C268.448 92.1094 268.509 92.164 268.557 92.23L269.787 94.05C269.844 94.1324 269.928 94.1936 270.023 94.2243C270.119 94.255 270.222 94.2535 270.317 94.22L272.877 93.33C272.939 93.3006 273.008 93.2853 273.077 93.2853C273.146 93.2853 273.214 93.3006 273.277 93.33L274.577 94.18L274.697 94.23L276.817 94.83C276.877 94.8571 276.941 94.8711 277.007 94.8711C277.072 94.8711 277.137 94.8571 277.197 94.83L277.887 94.39C277.946 94.35 277.995 94.2969 278.031 94.2349C278.067 94.1729 278.088 94.1036 278.093 94.0322C278.098 93.9609 278.086 93.8893 278.059 93.8231C278.032 93.7569 277.99 93.6977 277.937 93.65L274.087 90.25Z" fill="#11111B"/>
<path d="M408.757 145.38L408.827 144.45C408.836 144.324 408.808 144.199 408.747 144.09L406.677 140.64C406.605 140.517 406.491 140.425 406.357 140.38L401.237 138.6H401.057H400.057C399.978 138.598 399.9 138.613 399.826 138.642C399.753 138.67 399.686 138.714 399.63 138.768C399.573 138.823 399.528 138.889 399.496 138.961C399.465 139.033 399.448 139.111 399.447 139.19V141.36C399.446 141.47 399.477 141.577 399.537 141.67L400.817 143.8L401.817 145.28C401.887 145.382 401.989 145.459 402.107 145.5L403.617 146.03C403.686 146.04 403.757 146.04 403.827 146.03L408.057 145.91C408.138 145.925 408.222 145.924 408.303 145.905C408.383 145.886 408.459 145.851 408.525 145.801C408.591 145.751 408.646 145.687 408.686 145.615C408.726 145.542 408.75 145.462 408.757 145.38Z" fill="#11111B"/>
<path d="M400.347 133.64C400.259 133.589 400.159 133.561 400.057 133.56L393.057 133.43C392.973 133.429 392.89 133.446 392.812 133.479C392.735 133.511 392.665 133.559 392.607 133.62L390.867 135.5C390.793 135.578 390.742 135.674 390.718 135.778C390.695 135.883 390.699 135.992 390.732 136.094C390.765 136.196 390.824 136.288 390.904 136.359C390.984 136.43 391.082 136.479 391.187 136.5L392.557 136.77C392.62 136.78 392.684 136.78 392.747 136.77L394.847 136.47L397.437 136.02C397.576 135.996 397.703 135.924 397.795 135.816C397.886 135.708 397.937 135.571 397.937 135.43V135.36C397.937 135.202 397.999 135.051 398.109 134.939C398.219 134.827 398.37 134.762 398.527 134.76H400.087C400.216 134.752 400.339 134.702 400.437 134.619C400.536 134.535 400.605 134.422 400.634 134.297C400.663 134.171 400.651 134.039 400.599 133.921C400.548 133.802 400.459 133.704 400.347 133.64Z" fill="#11111B"/>
<path d="M513.957 280.09C509.847 278.09 504.957 281.09 501.957 276.84C498.957 272.59 489.727 269.84 489.727 269.84C489.727 269.84 485.037 266.76 480.427 268.16C475.817 269.56 472.317 264.62 472.317 264.62C472.317 264.62 467.697 265.94 465.377 262.89C463.057 259.84 446.377 256.68 446.377 256.68C446.377 256.68 437.887 258 437.127 254.68C436.367 251.36 435.067 249.63 433.737 250.33C432.407 251.03 433.007 252.55 429.667 252.1C426.327 251.65 422.367 251.1 419.177 249.23C417.897 248.46 416.476 247.954 414.997 247.741C413.519 247.528 412.012 247.613 410.567 247.99C409.187 248.33 406.707 247.55 404.767 246.78L404.857 241.31L407.277 235.14L407.527 201.6L410.377 195.13L412.147 224.13L414.937 159.83L412.637 155.74L415.547 150.18L414.057 148.48L414.387 141.41L408.987 130L402.087 126.35L399.677 124L397.247 102.73L393.667 124.73L392.387 125.85L391.387 124.57L389.387 111.86L387.787 128.48L386.347 123.41L384.087 131.59L380.997 134.21L378.737 145.77L379.147 148L380.807 153.22L380.857 157.22V166.03L378.997 172V192.1L381.997 210.02L383.337 197.11L385.287 203.04L383.287 227.43L383.737 240.51C382.569 239.898 381.452 239.192 380.397 238.4C378.25 238.494 376.13 237.898 374.347 236.7C370.977 234.64 370.857 237.24 367.267 235.94C363.677 234.64 366.467 230.94 363.267 230.94C360.067 230.94 356.597 232 347.087 229.65C347.087 229.65 345.857 229.31 343.907 228.74V221.88L344.677 216.88L344.827 178.03C344.827 178.03 346.527 169.32 346.757 169.36C346.987 169.4 346.867 209.16 346.867 209.16L348.637 205.16L351.087 147.75L348.087 137.86L348.697 117.08L352.477 105.27L349.917 92.43L345.987 90.91L342.617 82.1L340.847 86.61L334.217 83.52L332.287 73.59L329.747 85.59L327.347 65.08L323.697 88.79L318.207 95.4L317.717 100.05L315.407 106.45L316.407 113.73L314.717 119.87L316.927 123.87L318.197 156.87V157.11L318.797 158.93L318.677 162.08L318.237 182.08L320.957 192.58L321.087 220L321.247 221.5C320.093 221.095 318.981 220.579 317.927 219.96C314.407 217.53 311.797 212.41 305.197 211.96C302.857 210.88 302.857 209.66 299.817 208.44C296.777 207.22 290.677 203.78 288.257 203.99C285.837 204.2 282.797 204.8 282.797 204.8L281.557 204.36V204.3L282.147 175.66L280.397 168.5L280.937 142.22L282.587 135.67L283.767 164L285.137 124.65L287.837 117.39L287.227 110.71L286.967 104.36L286.437 95.77L285.087 88L282.707 87.41L280.597 69.67L277.857 84.81L276.927 70.81L274.927 79.89L273.247 57L267.427 80.54L259.897 83.31L249.267 86L243.707 96.67L243.807 118.07L247.997 129.07L247.707 148.21L252.857 162.36L249.717 169.1L250.967 196L251.057 197.5L250.387 197.35C246.947 196.35 247.547 193.03 245.387 191.95C241.555 193.951 237.11 194.436 232.937 193.31C225.637 191.48 210.747 186.31 210.747 186.31L209.077 185.83L209.017 178.18V170.59L211.857 162.99L212.167 147.64L213.167 145.31L212.787 139L215.027 134.73L216.757 128.4L212.647 109.4L211.087 117.19L208.187 85L202.947 111.79L200.177 95.59L197.427 107L188.917 106.46L179.597 113.83V119.17L176.867 124.8L177.537 132.39L176.997 138L177.087 149.65L173.907 161.27L178.287 179.7V179.92C170.187 180.41 154.437 178.61 150.287 176.24C146.137 173.87 144.417 170.76 139.757 170.76C135.097 170.76 135.597 169.46 131.697 166.76C127.797 164.06 123.447 161.34 122.747 161.23C120.867 160.92 119.897 159.62 118.687 158.9C116.747 157.75 113.687 157.41 111.627 157.03C110.516 156.666 109.32 156.645 108.197 156.97C107.423 157.358 106.742 157.907 106.197 158.58C105.417 159.44 104.557 160.24 103.777 161.1C102.997 161.96 91.3769 165.53 90.3969 171.53C89.5869 176.53 83.2369 179.81 95.2569 194.25C103.797 204.5 127.927 202.02 129.537 205.09C131.147 208.16 137.837 206.33 139.657 207.54C141.477 208.75 151.177 217.61 154.837 217.74C158.497 217.87 159.107 216.39 160.927 217.74C162.747 219.09 170.707 221 170.707 221C173.175 222.333 175.906 223.105 178.707 223.26L178.767 229.99L179.767 234.2L181.087 298.87L183.637 246.17L185.087 251.28L185.467 295.45L188.467 308.6L188.087 323.43L189.087 328.89L189.187 342.89L192.707 376.44L196.087 342.8L195.717 325.13L198.057 317.36L198.207 292.36L200.207 333.43L203.147 269.89L202.707 265.68L207.707 251.3L207.617 237L209.487 233.17L209.427 226.06L211.997 226.39C211.997 226.39 228.657 227.5 228.997 231.25C229.337 235 235.077 239.76 245.997 241.58C252.597 241.88 253.607 245.91 253.607 245.91C253.607 245.91 253.767 246.26 254.047 246.73V247.35L253.777 261.64L256.337 273.05L256.067 286.47L257.317 293.75L258.757 347.35L260.527 322.73L260.897 358.37L262.867 384L267.697 326.6L267.087 309.7L270.087 299.97L270.877 261.37L272.697 247.37L273.427 247.27L273.827 298.04L278.087 246.61L281.377 246.13C281.377 246.13 287.377 244.01 289.197 247.66C291.017 251.31 292.767 255.51 294.327 254.93C295.887 254.35 298.747 252.99 300.047 256.1C301.347 259.21 302.327 259.29 297.427 259.79C297.097 259.79 297.017 261.31 299.527 262.25C302.037 263.19 302.527 263.47 304.387 262.25C311.757 257.34 316.267 258.43 316.267 258.43C316.267 258.43 322.267 256.89 323.957 258.96L324.397 259.51L324.607 279.96L322.707 288.81L327.087 328L328.747 296.18L331.347 300.04L332.597 354.82L335.387 331.55V319.47L338.227 312.2V274.45L340.977 265.24C342.336 265.524 343.573 266.223 344.517 267.24C346.357 270.1 356.267 266.81 358.907 267.24C361.547 267.67 372.317 270.24 372.317 270.24C372.317 270.24 371.477 272.42 374.107 272.16C376.737 271.9 385.407 266.39 388.677 266.71C389.417 266.78 390.137 266.83 390.827 266.88L391.347 270.46L391.427 288.46L389.667 303.61L393.247 311.48L395.467 364.66L398.467 330.91L400.877 323.68L401.877 294.09L403.697 334.61L406.617 279.35L404.737 268.64C416.287 270.64 434.267 274.26 436.337 277.47C439.397 282.25 443.147 281.81 442.187 277.47C441.547 274.6 438.557 272.12 436.187 270.7C433.187 268.88 449.047 272.53 449.057 272.54C455.957 274.65 466.317 277.28 468.317 277.07C471.007 276.78 472.267 277.37 473.767 278.9C475.267 280.43 475.847 283.9 481.327 283.1C486.807 282.3 489.107 280.91 494.647 283.1C500.187 285.29 507.297 284.58 511.337 284.63C515.377 284.68 518.087 282.12 513.957 280.09ZM192.337 228L190.637 164.73L190.077 158.25L189.197 151.25C189.17 151.065 189.083 150.894 188.948 150.764C188.813 150.635 188.639 150.554 188.453 150.534C188.267 150.515 188.08 150.558 187.921 150.657C187.763 150.755 187.641 150.904 187.577 151.08C187.562 151.176 187.562 151.274 187.577 151.37L188.997 207.25L184.797 148.83C184.803 148.794 184.803 148.756 184.797 148.72L183.797 144.26C183.748 144.049 183.781 143.828 183.891 143.642C184.001 143.455 184.179 143.319 184.387 143.26L185.447 142.96C185.607 142.919 185.752 142.83 185.861 142.705C185.969 142.58 186.038 142.425 186.057 142.26L186.347 139.92C186.361 139.805 186.399 139.695 186.458 139.595C186.517 139.496 186.596 139.409 186.69 139.342C186.784 139.274 186.89 139.227 187.004 139.202C187.117 139.178 187.234 139.177 187.347 139.2L188.347 139.4C188.526 139.432 188.689 139.522 188.812 139.655C188.934 139.789 189.01 139.959 189.027 140.14L189.497 145.23C189.507 145.357 189.546 145.481 189.612 145.59C189.678 145.699 189.769 145.792 189.877 145.86L193.167 148C193.288 148.074 193.387 148.179 193.456 148.303C193.524 148.428 193.559 148.568 193.557 148.71L192.337 228ZM207.507 145.56C207.395 145.619 207.307 145.714 207.257 145.83L206.527 147.44C206.518 147.51 206.518 147.58 206.527 147.65L205.877 166.53C205.877 166.681 205.817 166.826 205.71 166.933C205.603 167.04 205.458 167.1 205.307 167.1C205.156 167.1 205.011 167.04 204.904 166.933C204.797 166.826 204.737 166.681 204.737 166.53L202.737 148.06C202.746 148 202.746 147.94 202.737 147.88L201.357 144.88C201.304 144.766 201.214 144.672 201.102 144.614C200.989 144.556 200.861 144.537 200.737 144.56L199.527 144.78C199.402 144.801 199.288 144.864 199.205 144.958C199.121 145.053 199.072 145.174 199.067 145.3L198.647 151.63C198.637 151.769 198.577 151.899 198.478 151.997C198.379 152.095 198.248 152.153 198.108 152.16C197.969 152.168 197.833 152.124 197.724 152.037C197.615 151.951 197.541 151.827 197.517 151.69L196.517 145.76C196.509 145.662 196.466 145.57 196.397 145.5L194.917 143.67C194.899 143.642 194.875 143.618 194.847 143.6L185.407 135.43C185.308 135.355 185.187 135.314 185.062 135.314C184.937 135.314 184.816 135.355 184.717 135.43L184.407 135.64C184.285 135.722 184.199 135.847 184.165 135.99C184.132 136.132 184.154 136.283 184.227 136.41L185.087 138C185.13 138.072 185.158 138.152 185.166 138.236C185.175 138.32 185.165 138.404 185.137 138.483C185.11 138.563 185.065 138.635 185.006 138.695C184.947 138.755 184.876 138.801 184.797 138.83L184.237 139.04C184.146 139.075 184.048 139.086 183.952 139.072C183.855 139.058 183.764 139.019 183.687 138.96L180.747 136.68C180.683 136.625 180.63 136.558 180.592 136.482C180.554 136.407 180.532 136.324 180.527 136.24L180.357 129.56C180.35 129.423 180.297 129.293 180.207 129.19L178.527 127.36C178.452 127.275 178.404 127.17 178.388 127.058C178.372 126.947 178.389 126.832 178.437 126.73L181.707 119.65C181.748 119.573 181.769 119.487 181.767 119.4L181.677 115.91C181.673 115.808 181.698 115.706 181.747 115.617C181.796 115.527 181.869 115.452 181.957 115.4L188.207 111.74L188.337 111.69L192.767 110.33C192.856 110.31 192.948 110.31 193.037 110.33L201.037 111.8C201.111 111.82 201.182 111.85 201.247 111.89L208.737 117C208.806 117.047 208.864 117.108 208.907 117.18L212.907 124.05C212.945 124.111 212.969 124.179 212.977 124.25L213.897 130.25C213.907 130.313 213.907 130.377 213.897 130.44L213.187 134.37C213.167 134.447 213.137 134.521 213.097 134.59L210.517 138.43C210.459 138.509 210.424 138.602 210.417 138.7L210.147 142.41C210.142 142.473 210.142 142.537 210.147 142.6L210.397 143.49C210.433 143.615 210.425 143.749 210.374 143.87C210.323 143.99 210.232 144.089 210.117 144.15L207.507 145.56ZM248.247 101L249.897 98.93C249.984 98.8233 250.103 98.748 250.237 98.7155C250.37 98.683 250.511 98.6951 250.637 98.75C250.711 98.7853 250.777 98.8348 250.831 98.8957C250.886 98.9565 250.928 99.0276 250.954 99.1047C250.981 99.1818 250.993 99.2635 250.988 99.3451C250.983 99.4267 250.963 99.5065 250.927 99.58L250.337 100.83V100.89L249.587 102C249.538 102.076 249.473 102.14 249.397 102.188C249.32 102.236 249.234 102.267 249.145 102.278C249.055 102.29 248.964 102.282 248.878 102.254C248.792 102.227 248.713 102.181 248.647 102.12L248.307 101.8C248.204 101.695 248.141 101.558 248.13 101.411C248.119 101.264 248.161 101.119 248.247 101ZM278.067 101.5C278.021 101.419 277.951 101.354 277.868 101.313C277.784 101.272 277.689 101.258 277.597 101.272C277.505 101.286 277.419 101.328 277.351 101.392C277.283 101.456 277.237 101.539 277.217 101.63L276.217 106.38C276.208 106.499 276.151 106.61 276.06 106.688C275.969 106.766 275.851 106.804 275.732 106.795C275.613 106.786 275.502 106.729 275.424 106.638C275.346 106.547 275.308 106.429 275.317 106.31L274.987 100.06C274.982 99.9763 274.955 99.8954 274.908 99.826C274.861 99.7566 274.796 99.7015 274.72 99.6665C274.643 99.6315 274.559 99.618 274.476 99.6274C274.393 99.6368 274.313 99.6688 274.247 99.72L272.587 101C272.524 101.05 272.447 101.081 272.367 101.09L271.817 101.16C271.711 101.169 271.605 101.144 271.515 101.088C271.425 101.032 271.355 100.949 271.317 100.85L270.087 97.31L269.857 97.88V98L269.747 99C269.742 99.0465 269.742 99.0935 269.747 99.14L270.317 102.23C270.313 102.27 270.313 102.31 270.317 102.35L271.017 103.8C271.047 103.884 271.047 103.976 271.017 104.06L270.717 106.49C270.721 106.53 270.721 106.57 270.717 106.61L269.717 108.86C269.702 108.916 269.702 108.974 269.717 109.03L268.177 197.08L266.917 147.03C266.917 146.908 266.868 146.791 266.782 146.705C266.696 146.618 266.579 146.57 266.457 146.57C266.335 146.57 266.218 146.618 266.132 146.705C266.045 146.791 265.997 146.908 265.997 147.03C265.981 147.139 265.926 147.239 265.842 147.311C265.759 147.383 265.652 147.422 265.542 147.422C265.432 147.422 265.325 147.383 265.242 147.311C265.158 147.239 265.103 147.139 265.087 147.03L264.697 108.1C264.699 108.014 264.675 107.929 264.629 107.856C264.582 107.783 264.516 107.725 264.437 107.69L263.087 107C262.996 106.955 262.922 106.881 262.877 106.79L262.087 105.3C262.06 105.246 262.022 105.199 261.976 105.161C261.929 105.123 261.875 105.095 261.817 105.08L259.327 104.25C259.599 104.663 259.837 105.098 260.037 105.55C260.286 106.13 260.57 106.694 260.887 107.24C260.928 107.313 260.948 107.396 260.947 107.48L260.337 121.74C260.337 121.862 260.288 121.979 260.202 122.065C260.116 122.152 259.999 122.2 259.877 122.2C259.755 122.2 259.638 122.152 259.552 122.065C259.465 121.979 259.417 121.862 259.417 121.74L258.547 106.74C258.54 106.645 258.503 106.554 258.442 106.481C258.381 106.407 258.299 106.355 258.207 106.33L254.997 105.42C254.881 105.375 254.753 105.375 254.637 105.42L253.857 105.88C253.799 105.912 253.75 105.956 253.712 106.01C253.674 106.064 253.648 106.125 253.637 106.19C253.467 107.04 252.837 110.32 252.837 110.43C252.837 110.54 251.987 108.79 251.667 108.13C251.631 108.052 251.573 107.986 251.5 107.94C251.427 107.894 251.343 107.87 251.257 107.87H249.047L246.987 108L245.787 108.16L246.917 106.45C246.97 106.364 247.051 106.301 247.147 106.27L249.867 105.27C249.937 105.244 250 105.201 250.051 105.145C250.101 105.09 250.138 105.023 250.157 104.95L250.487 103.59C250.508 103.505 250.553 103.427 250.616 103.366C250.68 103.306 250.759 103.264 250.846 103.248C250.932 103.231 251.021 103.239 251.103 103.271C251.185 103.304 251.256 103.359 251.307 103.43L251.907 104.27C251.954 104.335 252.019 104.386 252.092 104.417C252.166 104.449 252.247 104.46 252.327 104.45L254.137 104.3C254.254 104.29 254.362 104.236 254.44 104.148C254.518 104.061 254.56 103.947 254.557 103.83L254.457 100.05C254.454 99.9821 254.436 99.9157 254.405 99.8553C254.374 99.7948 254.33 99.7419 254.277 99.7L253.607 99.18C253.558 99.1368 253.519 99.0837 253.492 99.0243C253.465 98.9648 253.451 98.9003 253.451 98.835C253.451 98.7697 253.465 98.7052 253.492 98.6457C253.519 98.5863 253.558 98.5332 253.607 98.49L255.467 96.64L255.527 96.57L256.527 94.99C256.564 94.9323 256.613 94.8836 256.671 94.8475C256.729 94.8113 256.795 94.7885 256.863 94.7809C256.931 94.7732 257 94.7808 257.064 94.8031C257.129 94.8255 257.188 94.862 257.237 94.91L259.777 97.42C259.858 97.4962 259.908 97.5996 259.917 97.7104C259.926 97.8212 259.894 97.9315 259.827 98.02L258.717 99.56L258.657 99.68L258.517 100.08C258.491 100.156 258.486 100.238 258.502 100.317C258.518 100.396 258.554 100.469 258.607 100.53L261.037 103.3C261.107 103.386 261.207 103.443 261.317 103.46L265.517 104.1C265.589 104.11 265.663 104.104 265.732 104.081C265.801 104.059 265.864 104.021 265.917 103.97L267.397 102.46C267.445 102.411 267.482 102.35 267.502 102.284C267.523 102.218 267.528 102.148 267.517 102.08L266.937 97.82C266.925 97.7388 266.89 97.6626 266.837 97.6L263.617 93.51C263.579 93.4575 263.529 93.4141 263.472 93.383C263.415 93.3519 263.352 93.3338 263.287 93.33L258.087 93C257.116 92.8455 256.157 92.6249 255.217 92.34C255.217 92.24 255.777 90.65 256.007 90.01C256.033 89.9298 256.082 89.8588 256.148 89.8056C256.213 89.7524 256.293 89.7192 256.377 89.71L259.997 89.23C260.071 89.2228 260.142 89.1969 260.203 89.155C260.264 89.113 260.314 89.0563 260.347 88.99L261.137 87.44C261.172 87.3794 261.22 87.3269 261.277 87.2856C261.334 87.2443 261.398 87.2151 261.467 87.2L267.857 86C267.929 85.98 268.005 85.98 268.077 86L273.997 87.87H274.077L278.327 90.22C278.397 90.2571 278.456 90.3123 278.497 90.38L282.877 97.31C282.925 97.3882 282.949 97.4784 282.947 97.57L282.197 116L281.817 120.44L280.737 106.07C280.737 105.999 280.716 105.929 280.677 105.87L278.067 101.5ZM342.527 129.77L342.607 134.7C342.617 134.75 342.617 134.8 342.607 134.85L341.687 137.62C341.681 137.663 341.681 137.707 341.687 137.75L340.537 190.75L338.697 129.31C338.692 129.222 338.714 129.134 338.761 129.059C338.807 128.984 338.876 128.925 338.957 128.89L342.047 127.38C342.122 127.34 342.184 127.281 342.228 127.209C342.272 127.137 342.296 127.055 342.297 126.97V125.72C342.297 125.639 342.276 125.559 342.236 125.489C342.195 125.419 342.137 125.361 342.067 125.32L339.347 123.8C339.281 123.767 339.224 123.717 339.182 123.656C339.14 123.595 339.114 123.524 339.107 123.45L338.777 119.72L337.897 121.4H337.457L337.057 110.69C337.041 110.581 336.986 110.481 336.902 110.409C336.819 110.337 336.712 110.298 336.602 110.298C336.492 110.298 336.385 110.337 336.302 110.409C336.218 110.481 336.163 110.581 336.147 110.69L335.357 121.9C335.354 121.966 335.336 122.031 335.305 122.09C335.274 122.149 335.23 122.2 335.177 122.24L334.017 123.08C333.971 123.116 333.919 123.142 333.863 123.157C333.806 123.173 333.748 123.177 333.69 123.169C333.633 123.162 333.577 123.143 333.527 123.114C333.476 123.085 333.432 123.046 333.397 123L332.057 121.31C332.02 121.261 331.989 121.207 331.967 121.15L331.347 119C331.319 118.904 331.262 118.819 331.183 118.758C331.103 118.697 331.007 118.662 330.907 118.66H330.737C330.617 118.663 330.502 118.712 330.418 118.798C330.334 118.884 330.287 119 330.287 119.12V120.78C330.287 120.845 330.274 120.909 330.248 120.968C330.222 121.028 330.183 121.081 330.135 121.124C330.087 121.168 330.03 121.201 329.968 121.22C329.907 121.24 329.841 121.247 329.777 121.24L328.357 121.06C328.298 121.053 328.241 121.035 328.19 121.006C328.138 120.976 328.093 120.937 328.057 120.89L327.327 119.97C327.289 119.917 327.239 119.874 327.182 119.843C327.125 119.812 327.062 119.794 326.997 119.79L321.447 119.55C321.334 119.546 321.224 119.584 321.138 119.656C321.051 119.728 320.994 119.829 320.977 119.94L320.627 122.28C320.616 122.358 320.626 122.437 320.653 122.51C320.681 122.584 320.727 122.649 320.787 122.7L323.717 125.14C323.76 125.18 323.81 125.21 323.865 125.229C323.92 125.248 323.979 125.255 324.037 125.25L326.327 125.09C326.377 125.099 326.427 125.099 326.477 125.09L329.717 123.6C329.799 123.576 329.885 123.576 329.967 123.6L331.627 123.82C331.701 123.829 331.773 123.857 331.834 123.9C331.895 123.944 331.944 124.002 331.977 124.07L333.787 127.77C333.82 127.838 333.869 127.896 333.93 127.94C333.991 127.983 334.062 128.011 334.137 128.02L336.487 128.37C336.596 128.382 336.697 128.436 336.77 128.519C336.842 128.602 336.88 128.71 336.877 128.82C336.767 134.45 335.557 198.16 335.387 215.82C335.197 200.94 334.157 153.36 333.827 138.02C333.82 137.909 333.772 137.804 333.693 137.725C333.614 137.646 333.509 137.599 333.398 137.591C333.287 137.584 333.177 137.617 333.088 137.685C333 137.753 332.939 137.851 332.917 137.96L332.457 140.7C332.435 140.803 332.378 140.896 332.297 140.962C332.215 141.028 332.112 141.065 332.007 141.065C331.901 141.065 331.799 141.028 331.717 140.962C331.635 140.896 331.579 140.803 331.557 140.7L330.737 134.47C330.729 134.402 330.705 134.337 330.667 134.28L329.567 132.55C329.514 132.471 329.489 132.375 329.497 132.28V131.45C329.5 131.374 329.522 131.3 329.562 131.235C329.601 131.17 329.656 131.116 329.722 131.078C329.788 131.04 329.862 131.019 329.938 131.018C330.015 131.017 330.09 131.034 330.157 131.07L331.767 131.87C331.821 131.897 331.88 131.912 331.941 131.916C332.001 131.919 332.062 131.91 332.119 131.89C332.176 131.869 332.228 131.837 332.272 131.796C332.317 131.755 332.352 131.705 332.377 131.65L333.147 129.98C333.174 129.92 333.188 129.856 333.188 129.79C333.188 129.724 333.174 129.66 333.147 129.6L331.387 125.93C331.357 125.866 331.312 125.811 331.257 125.767C331.201 125.724 331.136 125.695 331.067 125.681C330.998 125.667 330.927 125.67 330.859 125.689C330.791 125.708 330.729 125.743 330.677 125.79L328.867 127.39C328.787 127.46 328.734 127.555 328.717 127.66L327.977 132.01C327.957 132.109 327.908 132.199 327.837 132.27L326.337 133.62C326.289 133.661 326.251 133.711 326.225 133.768C326.2 133.825 326.186 133.887 326.187 133.95L325.277 159.86C325.286 159.979 325.248 160.097 325.17 160.188C325.092 160.279 324.981 160.336 324.862 160.345C324.743 160.354 324.624 160.316 324.533 160.238C324.443 160.16 324.386 160.049 324.377 159.93L323.557 155.72C323.557 155.72 323.557 155.66 323.557 155.64L323.387 128.57C323.388 128.51 323.378 128.45 323.356 128.395C323.334 128.339 323.301 128.288 323.259 128.245C323.217 128.202 323.167 128.168 323.111 128.145C323.056 128.122 322.997 128.11 322.937 128.11H321.837C321.728 128.109 321.623 128.069 321.54 127.998C321.458 127.926 321.404 127.828 321.387 127.72L321.087 125.07C321.075 124.971 321.029 124.879 320.957 124.81L318.217 122.16C318.171 122.114 318.136 122.059 318.114 121.999C318.091 121.939 318.082 121.874 318.087 121.81L318.487 114.39C318.493 114.281 318.538 114.179 318.613 114.1C318.688 114.021 318.789 113.972 318.897 113.96L319.697 113.87C319.807 113.859 319.917 113.887 320.009 113.949C320.1 114.011 320.167 114.104 320.197 114.21L320.617 115.88C320.643 115.993 320.712 116.091 320.809 116.154C320.906 116.217 321.023 116.241 321.137 116.22L323.367 115.83C323.451 115.816 323.529 115.78 323.593 115.724C323.657 115.669 323.705 115.597 323.731 115.516C323.756 115.436 323.759 115.35 323.739 115.267C323.719 115.185 323.677 115.11 323.617 115.05L321.317 112.76C321.267 112.707 321.229 112.644 321.207 112.575C321.184 112.505 321.178 112.432 321.187 112.36L321.477 110.5C321.486 110.436 321.481 110.372 321.464 110.31C321.447 110.248 321.417 110.19 321.377 110.14L320.027 108.5C319.957 108.415 319.918 108.31 319.917 108.2L320.007 101.12C320.006 101.023 320.038 100.928 320.097 100.85L324.327 95.09C324.384 95.0174 324.46 94.962 324.547 94.93L330.337 92.93C330.431 92.8961 330.511 92.8333 330.567 92.7506C330.623 92.6679 330.651 92.5696 330.647 92.47V91.73C330.643 91.6671 330.652 91.6041 330.673 91.5447C330.694 91.4854 330.727 91.4311 330.771 91.3852C330.814 91.3392 330.866 91.3026 330.924 91.2777C330.982 91.2527 331.044 91.2399 331.107 91.24L339.627 91.49C339.725 91.4929 339.82 91.528 339.897 91.59L343.357 94.37L343.417 94.43L347.727 99.35C347.768 99.396 347.799 99.4507 347.817 99.51L349.887 106.14C349.892 106.183 349.892 106.227 349.887 106.27V109.18C349.887 109.24 349.875 109.3 349.851 109.355C349.827 109.41 349.791 109.459 349.747 109.5L347.067 112.19L344.197 115.14C344.118 115.224 344.072 115.334 344.067 115.45L343.987 120.37C343.983 120.488 343.932 120.599 343.847 120.68L342.507 122.03C342.46 122.076 342.424 122.133 342.401 122.195C342.378 122.257 342.369 122.323 342.375 122.389C342.381 122.455 342.401 122.519 342.434 122.576C342.467 122.633 342.513 122.682 342.567 122.72L344.007 123.72C344.049 123.75 344.096 123.771 344.147 123.78L345.947 124.34C346.059 124.375 346.154 124.451 346.211 124.553C346.269 124.656 346.285 124.776 346.257 124.89L345.537 127.63C345.499 127.749 345.417 127.849 345.307 127.91L342.817 129.27C342.717 129.308 342.633 129.38 342.58 129.473C342.527 129.566 342.508 129.675 342.527 129.78V129.77ZM386.427 241.77L387.137 234.08L388.487 218.43L389.487 242.93C388.477 242.58 387.447 242.19 386.427 241.76V241.77ZM399.717 160.23C399.716 160.379 399.659 160.522 399.557 160.63L398.987 161.2C398.885 161.301 398.825 161.437 398.817 161.58L398.647 167.31C398.656 167.459 398.606 167.605 398.508 167.716C398.409 167.828 398.27 167.896 398.122 167.905C397.973 167.914 397.827 167.864 397.716 167.766C397.604 167.667 397.536 167.529 397.527 167.38L396.837 162.87C396.829 162.721 396.762 162.582 396.652 162.483C396.541 162.383 396.395 162.332 396.247 162.34C396.098 162.348 395.959 162.415 395.86 162.525C395.76 162.636 395.709 162.781 395.717 162.93L395.477 168.18C395.483 168.223 395.483 168.267 395.477 168.31L394.967 170.1C394.961 170.146 394.961 170.193 394.967 170.24L393.967 237.91L392.267 164.65C392.266 164.537 392.23 164.427 392.164 164.335C392.098 164.244 392.004 164.176 391.897 164.14L391.247 163.9C391.138 163.863 391.043 163.793 390.975 163.7C390.907 163.607 390.869 163.495 390.867 163.38V161.91C390.866 161.835 390.85 161.76 390.819 161.691C390.788 161.622 390.743 161.561 390.687 161.51L390.557 161.39C390.498 161.336 390.452 161.27 390.42 161.197C390.388 161.124 390.372 161.045 390.372 160.965C390.372 160.885 390.388 160.806 390.42 160.733C390.452 160.66 390.498 160.594 390.557 160.54L392.077 159.25C392.144 159.198 392.196 159.129 392.227 159.05L392.967 157.39C393.011 157.292 393.083 157.208 393.173 157.15C393.264 157.091 393.369 157.06 393.477 157.06H397.197C397.311 157.059 397.424 157.092 397.519 157.157C397.613 157.221 397.686 157.313 397.727 157.42L397.847 157.74C397.878 157.82 397.927 157.892 397.989 157.95C398.051 158.009 398.126 158.053 398.207 158.08L398.987 158.32C399.068 158.344 399.142 158.387 399.205 158.444C399.267 158.501 399.316 158.571 399.347 158.65L399.737 159.65C399.751 159.719 399.751 159.791 399.737 159.86L399.717 160.23ZM404.517 149.48L403.447 148.48C403.353 148.392 403.233 148.337 403.105 148.323C402.977 148.308 402.848 148.335 402.737 148.4L401.167 149.32C401.1 149.359 401.041 149.411 400.994 149.473C400.947 149.535 400.913 149.606 400.893 149.681C400.874 149.757 400.87 149.835 400.88 149.912C400.891 149.989 400.917 150.063 400.957 150.13L401.687 151.42C401.748 151.526 401.775 151.648 401.767 151.77L401.557 154.41C401.544 154.564 401.473 154.707 401.357 154.809C401.242 154.912 401.091 154.966 400.937 154.96H400.727C400.603 154.957 400.483 154.915 400.384 154.839C400.285 154.764 400.213 154.659 400.177 154.54L399.447 152.1C399.41 151.979 399.336 151.873 399.235 151.796C399.135 151.719 399.013 151.675 398.887 151.67L393.887 151.55C393.771 151.55 393.657 151.582 393.557 151.64L392.387 152.39C392.286 152.451 392.205 152.542 392.157 152.65L391.897 153.25C391.85 153.357 391.773 153.448 391.676 153.512C391.578 153.576 391.464 153.61 391.347 153.61H391.247C391.166 153.609 391.086 153.591 391.012 153.559C390.938 153.526 390.871 153.479 390.815 153.421C390.759 153.362 390.715 153.293 390.687 153.217C390.658 153.142 390.644 153.061 390.647 152.98L390.697 151.87C390.706 151.719 390.77 151.577 390.877 151.47L392.667 149.68C392.764 149.588 392.825 149.463 392.837 149.33L393.067 147.54C393.087 147.407 393.151 147.284 393.249 147.191C393.346 147.099 393.473 147.042 393.607 147.03L394.607 146.93C394.712 146.918 394.812 146.88 394.897 146.818C394.983 146.757 395.052 146.675 395.097 146.58L395.517 145.58C395.561 145.478 395.633 145.391 395.726 145.329C395.818 145.267 395.926 145.232 396.037 145.23H396.227C396.351 145.224 396.474 145.258 396.579 145.326C396.683 145.394 396.763 145.494 396.807 145.61L397.177 146.53C397.219 146.642 397.295 146.738 397.393 146.805C397.491 146.873 397.608 146.91 397.727 146.91H398.087C398.174 146.908 398.259 146.888 398.337 146.85C398.415 146.813 398.484 146.759 398.54 146.693C398.596 146.627 398.637 146.55 398.661 146.466C398.684 146.383 398.69 146.296 398.677 146.21L398.497 145.12C398.479 145.03 398.442 144.944 398.387 144.87L396.957 142.87C396.913 142.805 396.855 142.75 396.788 142.708C396.72 142.667 396.645 142.64 396.567 142.63L395.837 142.51C395.707 142.49 395.573 142.513 395.458 142.577C395.342 142.64 395.25 142.739 395.197 142.86L394.717 143.92C394.665 144.037 394.576 144.134 394.464 144.197C394.353 144.26 394.224 144.285 394.097 144.27L393.667 144.21C393.524 144.191 393.392 144.12 393.297 144.012C393.201 143.904 393.148 143.764 393.147 143.62V140.32C393.147 140.23 393.127 140.141 393.087 140.06L392.687 139.23C392.627 139.108 392.526 139.01 392.402 138.954C392.278 138.897 392.139 138.885 392.007 138.92L389.437 139.58C389.377 139.593 389.319 139.617 389.267 139.65L386.267 141.59C386.153 141.666 386.068 141.779 386.027 141.91L385.087 144.75C385.087 144.75 385.087 144.75 385.087 144.84C385.087 145.08 384.897 146.23 385.137 146.23C385.377 146.23 387.747 146.07 388.527 146.02C388.681 146.008 388.825 145.937 388.927 145.82L389.357 145.34C389.421 145.267 389.502 145.212 389.593 145.179C389.684 145.146 389.781 145.136 389.877 145.15L390.697 145.25C390.849 145.27 390.988 145.347 391.084 145.467C391.181 145.586 391.228 145.737 391.217 145.89L391.157 146.64C391.138 146.799 391.059 146.946 390.937 147.05L389.307 148.36C389.235 148.419 389.178 148.495 389.14 148.579C389.102 148.664 389.084 148.757 389.087 148.85V151.1C389.087 151.1 389.087 151.16 389.087 151.19L387.897 161.58C387.893 161.603 387.893 161.627 387.897 161.65L386.897 166.11L386.977 151C386.98 150.865 386.933 150.734 386.847 150.63L385.997 149.57C385.926 149.483 385.833 149.417 385.727 149.381C385.621 149.344 385.507 149.338 385.397 149.363C385.288 149.388 385.188 149.443 385.108 149.522C385.029 149.601 384.973 149.701 384.947 149.81C384.747 150.69 384.507 151.71 384.507 151.61C384.507 151.51 383.907 148.77 383.717 147.9C383.699 147.814 383.662 147.734 383.608 147.664C383.554 147.595 383.485 147.539 383.407 147.5C382.877 147.22 381.687 146.58 381.687 146.37C381.687 146.16 381.787 143.26 381.817 142.49C381.823 142.366 381.869 142.247 381.947 142.15L384.087 139.45C384.173 139.348 384.288 139.274 384.417 139.24L385.977 138.84C386.082 138.811 386.178 138.756 386.257 138.68L388.487 136.37C388.583 136.272 388.641 136.143 388.652 136.006C388.663 135.869 388.626 135.732 388.547 135.62L388.417 135.42C388.372 135.353 388.341 135.278 388.326 135.198C388.311 135.119 388.312 135.038 388.33 134.959C388.348 134.88 388.381 134.806 388.429 134.741C388.477 134.676 388.537 134.621 388.607 134.58L392.047 132.52C392.133 132.471 392.228 132.44 392.327 132.43L400.847 132.09C400.971 132.089 401.092 132.123 401.197 132.19L404.247 134.19C404.343 134.252 404.416 134.343 404.457 134.45L405.687 137.29C405.718 137.369 405.766 137.441 405.827 137.5L410.727 141.92C410.798 141.987 410.853 142.069 410.887 142.16L411.597 144.09C411.612 144.176 411.612 144.264 411.597 144.35L411.417 146.61C411.406 146.744 411.351 146.87 411.26 146.97C411.17 147.069 411.049 147.136 410.917 147.16L410.457 147.23C410.372 147.244 410.29 147.277 410.219 147.326C410.147 147.374 410.087 147.438 410.043 147.512C409.998 147.586 409.97 147.669 409.96 147.755C409.951 147.841 409.96 147.928 409.987 148.01L410.327 149.01C410.372 149.136 410.372 149.274 410.327 149.4L409.197 152.47L408.597 154.36C408.587 154.416 408.587 154.474 408.597 154.53L408.087 178.71C408.068 178.855 407.997 178.987 407.888 179.083C407.778 179.18 407.638 179.233 407.492 179.233C407.346 179.233 407.205 179.18 407.096 179.083C406.986 178.987 406.916 178.855 406.897 178.71L405.477 157.34L404.697 149.83C404.684 149.692 404.619 149.564 404.517 149.47V149.48Z" fill="#11111B"/>
<path d="M144.562 455.312H137.096C136.96 454.347 136.681 453.489 136.261 452.739C135.84 451.977 135.3 451.33 134.641 450.795C133.982 450.261 133.221 449.852 132.357 449.568C131.505 449.284 130.579 449.142 129.579 449.142C127.772 449.142 126.198 449.591 124.857 450.489C123.516 451.375 122.477 452.67 121.738 454.375C120.999 456.068 120.63 458.125 120.63 460.545C120.63 463.034 120.999 465.125 121.738 466.818C122.488 468.511 123.533 469.79 124.874 470.653C126.215 471.517 127.766 471.949 129.528 471.949C130.516 471.949 131.431 471.818 132.272 471.557C133.124 471.295 133.88 470.915 134.539 470.415C135.198 469.903 135.744 469.284 136.175 468.557C136.619 467.83 136.925 467 137.096 466.068L144.562 466.102C144.369 467.705 143.886 469.25 143.113 470.739C142.352 472.216 141.323 473.54 140.028 474.71C138.744 475.869 137.21 476.79 135.425 477.472C133.653 478.142 131.647 478.477 129.408 478.477C126.295 478.477 123.511 477.773 121.056 476.364C118.613 474.955 116.681 472.915 115.261 470.244C113.852 467.574 113.147 464.341 113.147 460.545C113.147 456.739 113.863 453.5 115.295 450.83C116.727 448.159 118.67 446.125 121.124 444.727C123.579 443.318 126.34 442.614 129.408 442.614C131.431 442.614 133.306 442.898 135.033 443.466C136.772 444.034 138.312 444.864 139.653 445.955C140.994 447.034 142.085 448.358 142.925 449.926C143.778 451.494 144.323 453.29 144.562 455.312ZM155.215 478H147.306L159.357 443.091H168.869L180.903 478H172.994L164.249 451.068H163.977L155.215 478ZM154.721 464.278H173.403V470.04H154.721V464.278ZM185.104 478V443.091H192.485V471.915H207.451V478H185.104ZM212.339 478V443.091H219.719V471.915H234.685V478H212.339ZM270.293 460.545C270.293 464.352 269.572 467.591 268.129 470.261C266.697 472.932 264.742 474.972 262.265 476.381C259.799 477.778 257.026 478.477 253.947 478.477C250.844 478.477 248.06 477.773 245.594 476.364C243.129 474.955 241.18 472.915 239.748 470.244C238.316 467.574 237.6 464.341 237.6 460.545C237.6 456.739 238.316 453.5 239.748 450.83C241.18 448.159 243.129 446.125 245.594 444.727C248.06 443.318 250.844 442.614 253.947 442.614C257.026 442.614 259.799 443.318 262.265 444.727C264.742 446.125 266.697 448.159 268.129 450.83C269.572 453.5 270.293 456.739 270.293 460.545ZM262.81 460.545C262.81 458.08 262.441 456 261.702 454.307C260.975 452.614 259.947 451.33 258.617 450.455C257.288 449.58 255.731 449.142 253.947 449.142C252.163 449.142 250.606 449.58 249.276 450.455C247.947 451.33 246.913 452.614 246.174 454.307C245.447 456 245.083 458.08 245.083 460.545C245.083 463.011 245.447 465.091 246.174 466.784C246.913 468.477 247.947 469.761 249.276 470.636C250.606 471.511 252.163 471.949 253.947 471.949C255.731 471.949 257.288 471.511 258.617 470.636C259.947 469.761 260.975 468.477 261.702 466.784C262.441 465.091 262.81 463.011 262.81 460.545ZM297.323 443.091H304.704V465.761C304.704 468.307 304.096 470.534 302.88 472.443C301.675 474.352 299.988 475.841 297.817 476.909C295.647 477.966 293.119 478.494 290.232 478.494C287.335 478.494 284.8 477.966 282.63 476.909C280.46 475.841 278.772 474.352 277.567 472.443C276.363 470.534 275.761 468.307 275.761 465.761V443.091H283.141V465.131C283.141 466.46 283.431 467.642 284.011 468.676C284.602 469.71 285.431 470.523 286.499 471.114C287.567 471.705 288.812 472 290.232 472C291.664 472 292.908 471.705 293.965 471.114C295.033 470.523 295.857 469.71 296.437 468.676C297.028 467.642 297.323 466.46 297.323 465.131V443.091ZM309.447 449.176V443.091H338.117V449.176H327.43V478H320.134V449.176H309.447ZM353.948 443.091H363.05L372.664 466.545H373.073L382.687 443.091H391.789V478H384.63V455.278H384.34L375.306 477.83H370.431L361.397 455.193H361.107V478H353.948V443.091ZM403.887 478H395.978L408.029 443.091H417.54L429.575 478H421.665L412.921 451.068H412.648L403.887 478ZM403.393 464.278H422.075V470.04H403.393V464.278ZM433.776 478V443.091H447.549C450.197 443.091 452.452 443.597 454.316 444.608C456.18 445.608 457.6 447 458.577 448.784C459.566 450.557 460.06 452.602 460.06 454.92C460.06 457.239 459.56 459.284 458.56 461.057C457.56 462.83 456.112 464.21 454.214 465.199C452.327 466.187 450.043 466.682 447.362 466.682H438.583V460.767H446.168C447.589 460.767 448.759 460.523 449.68 460.034C450.612 459.534 451.305 458.847 451.759 457.972C452.225 457.085 452.458 456.068 452.458 454.92C452.458 453.761 452.225 452.75 451.759 451.886C451.305 451.011 450.612 450.335 449.68 449.858C448.748 449.369 447.566 449.125 446.134 449.125H441.157V478H433.776ZM483.792 453.131C483.656 451.756 483.07 450.687 482.036 449.926C481.002 449.165 479.599 448.784 477.826 448.784C476.621 448.784 475.604 448.955 474.775 449.295C473.945 449.625 473.309 450.085 472.866 450.676C472.434 451.267 472.218 451.938 472.218 452.688C472.195 453.312 472.326 453.858 472.61 454.324C472.906 454.79 473.309 455.193 473.82 455.534C474.332 455.864 474.923 456.153 475.593 456.403C476.263 456.642 476.979 456.847 477.741 457.017L480.877 457.767C482.4 458.108 483.798 458.562 485.07 459.131C486.343 459.699 487.445 460.398 488.377 461.227C489.309 462.057 490.031 463.034 490.542 464.159C491.065 465.284 491.332 466.574 491.343 468.028C491.332 470.165 490.786 472.017 489.707 473.585C488.638 475.142 487.093 476.352 485.07 477.216C483.059 478.068 480.633 478.494 477.792 478.494C474.974 478.494 472.519 478.062 470.428 477.199C468.349 476.335 466.724 475.057 465.553 473.364C464.394 471.659 463.786 469.551 463.729 467.04H470.871C470.951 468.21 471.286 469.187 471.877 469.972C472.479 470.744 473.281 471.33 474.281 471.727C475.292 472.114 476.434 472.307 477.707 472.307C478.957 472.307 480.042 472.125 480.962 471.761C481.894 471.398 482.616 470.892 483.127 470.244C483.638 469.597 483.894 468.852 483.894 468.011C483.894 467.227 483.661 466.568 483.195 466.034C482.741 465.5 482.07 465.045 481.184 464.67C480.309 464.295 479.235 463.955 477.962 463.648L474.161 462.693C471.218 461.977 468.894 460.858 467.19 459.335C465.485 457.812 464.638 455.761 464.65 453.182C464.638 451.068 465.201 449.222 466.337 447.642C467.485 446.062 469.059 444.83 471.059 443.943C473.059 443.057 475.332 442.614 477.877 442.614C480.468 442.614 482.729 443.057 484.661 443.943C486.604 444.83 488.116 446.062 489.195 447.642C490.275 449.222 490.832 451.051 490.866 453.131H483.792Z" fill="#11111B"/>
<path d="M266.62 429H254.245V394.091H266.722C270.234 394.091 273.256 394.79 275.79 396.188C278.325 397.574 280.273 399.568 281.637 402.17C283.012 404.773 283.7 407.886 283.7 411.511C283.7 415.148 283.012 418.273 281.637 420.886C280.273 423.5 278.313 425.506 275.756 426.903C273.211 428.301 270.165 429 266.62 429ZM261.626 422.676H266.313C268.495 422.676 270.33 422.29 271.819 421.517C273.319 420.733 274.444 419.523 275.194 417.886C275.955 416.239 276.336 414.114 276.336 411.511C276.336 408.932 275.955 406.824 275.194 405.188C274.444 403.551 273.325 402.347 271.836 401.574C270.347 400.801 268.512 400.415 266.33 400.415H261.626V422.676ZM289.167 429V394.091H303.144C305.712 394.091 307.854 394.472 309.57 395.233C311.286 395.994 312.576 397.051 313.44 398.403C314.303 399.744 314.735 401.29 314.735 403.04C314.735 404.403 314.462 405.602 313.917 406.636C313.371 407.659 312.621 408.5 311.667 409.159C310.724 409.807 309.644 410.267 308.428 410.54V410.881C309.758 410.937 311.002 411.312 312.161 412.006C313.332 412.699 314.281 413.67 315.008 414.92C315.735 416.159 316.099 417.636 316.099 419.352C316.099 421.205 315.638 422.858 314.718 424.312C313.809 425.756 312.462 426.898 310.678 427.739C308.894 428.58 306.695 429 304.082 429H289.167ZM296.548 422.966H302.565C304.621 422.966 306.121 422.574 307.065 421.79C308.008 420.994 308.479 419.937 308.479 418.619C308.479 417.653 308.246 416.801 307.781 416.062C307.315 415.324 306.65 414.744 305.786 414.324C304.934 413.903 303.917 413.693 302.735 413.693H296.548V422.966ZM296.548 408.699H302.019C303.031 408.699 303.928 408.523 304.712 408.17C305.508 407.807 306.133 407.295 306.587 406.636C307.053 405.977 307.286 405.188 307.286 404.267C307.286 403.006 306.837 401.989 305.94 401.216C305.053 400.443 303.792 400.057 302.156 400.057H296.548V408.699ZM333.276 429H320.901V394.091H333.379C336.89 394.091 339.913 394.79 342.447 396.188C344.981 397.574 346.93 399.568 348.293 402.17C349.668 404.773 350.356 407.886 350.356 411.511C350.356 415.148 349.668 418.273 348.293 420.886C346.93 423.5 344.969 425.506 342.413 426.903C339.867 428.301 336.822 429 333.276 429ZM328.282 422.676H332.969C335.151 422.676 336.987 422.29 338.475 421.517C339.975 420.733 341.1 419.523 341.85 417.886C342.612 416.239 342.992 414.114 342.992 411.511C342.992 408.932 342.612 406.824 341.85 405.188C341.1 403.551 339.981 402.347 338.492 401.574C337.004 400.801 335.168 400.415 332.987 400.415H328.282V422.676Z" fill="#11111B"/>
</svg>
